<?xml version="1.0" standalone="no"?>
<!DOCTYPE svg PUBLIC "-//W3C//DTD SVG 20010904//EN"
 "http://www.w3.org/TR/2001/REC-SVG-20010904/DTD/svg10.dtd">
<svg version="1.0" xmlns="http://www.w3.org/2000/svg"
 width="512.000000pt" height="512.000000pt" viewBox="0 0 512.000000 512.000000"
 preserveAspectRatio="xMidYMid meet">
<metadata>
Created by potrace 1.14, written by Peter Selinger 2001-2017
</metadata>
<g transform="translate(0.000000,512.000000) scale(0.100000,-0.100000)"
fill="#000000" stroke="none">
<path d="M645 5108 c-11 -6 -25 -19 -32 -27 -10 -13 -12 -458 -13 -2008 l0
-1992 23 -26 c18 -22 34 -27 85 -32 l62 -6 0 -481 c1 -507 0 -499 47 -524 31
-17 3455 -17 3486 0 47 25 46 17 47 524 l0 481 62 6 c51 5 67 10 85 32 l23 26
0 1992 c-1 1550 -3 1996 -13 2008 -7 9 -22 21 -34 27 -31 17 -3799 17 -3828 0z
m3705 -2033 l0 -1875 -1790 0 -1790 0 0 1875 0 1875 1790 0 1790 0 0 -1875z"/>
<path d="M1074 4686 c-17 -8 -36 -26 -42 -42 -9 -22 -12 -266 -10 -991 l3
-962 23 -23 23 -23 1489 0 1489 0 23 23 23 23 3 962 c2 725 -1 969 -10 991
-24 59 53 56 -1530 56 -1192 -1 -1459 -3 -1484 -14z"/>
<path d="M3246 2380 c-45 -14 -102 -58 -130 -101 -14 -21 -26 -43 -26 -49 0
-7 -165 -10 -495 -10 l-496 0 -24 -25 c-37 -36 -37 -86 1 -125 l24 -25 493 -3
492 -4 30 -46 c72 -111 133 -125 510 -120 l270 3 58 29 c161 79 195 288 66
414 -68 66 -70 67 -424 69 -176 1 -333 -2 -349 -7z"/>
<path d="M1303 2130 c-197 -40 -323 -239 -269 -424 45 -154 160 -247 316 -254
127 -6 228 45 301 152 92 137 70 323 -52 438 -77 72 -198 108 -296 88z"/>
</g>
</svg>
